<svg viewBox="-95 25 400 250" xmlns="http://www.w3.org/2000/svg" xmlns:xlink="http://www.w3.org/1999/xlink"><marker id="a" markerHeight="3.057387" markerUnits="strokeWidth" markerWidth="3.818118" orient="auto" refX="-1.867961" refY="0" viewBox="-3.3 -1.5 3.8 3.1"><path d="m-2.8-1 2.8 1-2.8 1z" fill="#111" stroke="#111"/></marker><marker id="b" markerHeight="3.057387" markerUnits="strokeWidth" markerWidth="3.818118" orient="auto" refX="-1.867961" refY="0" viewBox="-3.3 -1.5 3.8 3.1"><path d="m-2.8-1 2.8 1-2.8 1z" fill="#111" stroke="#111"/></marker><marker id="c" markerHeight="3.057387" markerUnits="strokeWidth" markerWidth="3.818118" orient="auto" refX="-1.867961" refY="0" viewBox="-3.3 -1.5 3.8 3.1"><path d="m-2.8-1 2.8 1-2.8 1z" fill="#111" stroke="#111"/></marker><marker id="d" markerHeight="3.057387" markerUnits="strokeWidth" markerWidth="3.818118" orient="auto" refX="-1.867961" refY="0" viewBox="-3.3 -1.5 3.8 3.1"><path d="m-2.8-1 2.8 1-2.8 1z" fill="#111" stroke="#111"/></marker><marker id="e" markerHeight="3.057387" markerUnits="strokeWidth" markerWidth="3.818118" orient="auto" refX="-1.867961" refY="0" viewBox="-3.3 -1.5 3.8 3.1"><path d="m-2.8-1 2.8 1-2.8 1z" fill="#111" stroke="#111"/></marker><rect fill="#111" height="28.3" rx="7.1" stroke="#111" width="155.9" x="28.3" y="28.3"/><text fill="#eee" font-family="Georgia" font-size="12" x="37.5" y="47.3">Associate/Junior Engineer</text><rect fill="#111" height="28.3" rx="7.1" stroke="#111" width="155.9" x="28.3" y="70.9"/><text fill="#eee" font-family="Georgia" font-size="12" x="59.3" y="89.8">Software Engineer</text><rect fill="#111" height="28.3" rx="7.1" stroke="#111" width="155.9" x="28.3" y="113.4"/><text fill="#eee" font-family="Georgia" font-size="12" x="40.6" y="132.3">Senior Software Engineer</text><rect fill="#111" height="28.3" rx="7.1" stroke="#111" width="155.9" x="28.3" y="155.9"/><text fill="#eee" font-family="Georgia" font-size="12" x="50.8" y="174.9">Engineering Manager</text><rect fill="none" height="28.3" rx="7.1" stroke="#111" stroke-dasharray="2 2" width="155.9" x="28.3" y="198.4"/><text fill="#111" font-family="Georgia" font-size="12" x="35.1" y="217.4">(More Management Levels)</text><rect fill="#111" height="28.3" rx="7.1" stroke="#111" width="155.9" x="28.3" y="240.9"/><text fill="#eee" font-family="Georgia" font-size="12" x="53.5" y="259.9">Head of Engineering</text><g stroke="#111" stroke-width="2"><path d="m106.3 56.7v9.4" marker-end="url(#a)"/><path d="m106.3 99.2v9.4" marker-end="url(#b)"/><path d="m106.3 141.7v9.5" marker-end="url(#c)"/><path d="m106.3 184.3v9.4" marker-end="url(#d)"/><path d="m106.3 226.8v9.4" marker-end="url(#e)"/></g></svg>
