<svg viewBox="260 25 430 250" xmlns="http://www.w3.org/2000/svg" xmlns:xlink="http://www.w3.org/1999/xlink"><marker id="a" markerHeight="3.057387" markerUnits="strokeWidth" markerWidth="3.818118" orient="auto" refX="-1.867961" refY="0" viewBox="-3.3 -1.5 3.8 3.1"><path d="m-2.8-1 2.8 1-2.8 1z" fill="#111" stroke="#111"/></marker><marker id="b" markerHeight="3.057387" markerUnits="strokeWidth" markerWidth="3.818118" orient="auto" refX="-1.867961" refY="0" viewBox="-3.3 -1.5 3.8 3.1"><path d="m-2.8-1 2.8 1-2.8 1z" fill="#111" stroke="#111"/></marker><marker id="c" markerHeight="3.057387" markerUnits="strokeWidth" markerWidth="3.818118" orient="auto" refX="-1.867961" refY="0" viewBox="-3.3 -1.5 3.8 3.1"><path d="m-2.8-1 2.8 1-2.8 1z" fill="#111" stroke="#111"/></marker><marker id="d" markerHeight="3.057387" markerUnits="strokeWidth" markerWidth="3.818118" orient="auto" refX="-1.867961" refY="0" viewBox="-3.3 -1.5 3.8 3.1"><path d="m-2.8-1 2.8 1-2.8 1z" fill="#111" stroke="#111"/></marker><marker id="e" markerHeight="3.057387" markerUnits="strokeWidth" markerWidth="3.818118" orient="auto" refX="-1.867961" refY="0" viewBox="-3.3 -1.5 3.8 3.1"><path d="m-2.8-1 2.8 1-2.8 1z" fill="#111" stroke="#111"/></marker><marker id="f" markerHeight="3.057387" markerUnits="strokeWidth" markerWidth="3.818118" orient="auto" refX="-1.867961" refY="0" viewBox="-3.3 -1.5 3.8 3.1"><path d="m-2.8-1 2.8 1-2.8 1z" fill="#111" stroke="#111"/></marker><marker id="g" markerHeight="3.057387" markerUnits="strokeWidth" markerWidth="3.818118" orient="auto" refX="-1.867961" refY="0" viewBox="-3.3 -1.5 3.8 3.1"><path d="m-2.8-1 2.8 1-2.8 1z" fill="#111" stroke="#111"/></marker><marker id="h" markerHeight="3.057387" markerUnits="strokeWidth" markerWidth="3.818118" orient="auto" refX="-1.867961" refY="0" viewBox="-3.3 -1.5 3.8 3.1"><path d="m-2.8-1 2.8 1-2.8 1z" fill="#111" stroke="#111"/></marker><marker id="i" markerHeight="3.057387" markerUnits="strokeWidth" markerWidth="3.818118" orient="auto" refX="-1.867961" refY="0" viewBox="-3.3 -1.5 3.8 3.1"><path d="m-2.8-1 2.8 1-2.8 1z" fill="#111" stroke="#111"/></marker><rect fill="#111" height="28.3" rx="7.1" stroke="#111" width="155.9" x="311.8" y="28.3"/><text fill="#eee" font-family="Georgia" font-size="12" x="320.9" y="47.3">Associate/Junior Engineer</text><rect fill="#111" height="28.3" rx="7.1" stroke="#111" width="155.9" x="311.8" y="70.9"/><text fill="#eee" font-family="Georgia" font-size="12" x="342.8" y="89.8">Software Engineer</text><rect fill="#111" height="28.3" rx="7.1" stroke="#111" width="155.9" x="311.8" y="113.4"/><text fill="#eee" font-family="Georgia" font-size="12" x="324.1" y="132.3">Senior Software Engineer</text><rect fill="#111" height="28.3" rx="7.1" stroke="#111" width="155.9" x="481.9" y="113.4"/><text fill="#eee" font-family="Georgia" font-size="12" x="504.4" y="132.3">Engineering Manager</text><rect fill="#111" height="28.3" rx="7.1" stroke="#111" width="155.9" x="481.9" y="155.9"/><text fill="#eee" font-family="Georgia" font-size="12" x="499.2" y="174.9">Director of Engineering</text><rect fill="#111" height="28.3" rx="7.1" stroke="#111" width="155.9" x="481.9" y="198.4"/><text fill="#eee" font-family="Georgia" font-size="12" x="520.7" y="217.4">Senior Director</text><g stroke="#111"><path d="m389.8 56.7v9.4" marker-end="url(#a)" stroke-width="2"/><path d="m389.8 99.2v9.4" marker-end="url(#b)" stroke-width="2"/><path d="m467.7 127.6h9.5" marker-end="url(#c)" stroke-width="2"/><path d="m559.8 141.7v9.5" marker-end="url(#d)" stroke-width="2"/><path d="m559.8 184.3v9.4" marker-end="url(#e)" stroke-width="2"/><rect fill="#111" height="28.3" rx="7.1" width="155.9" x="481.9" y="240.9"/></g><text fill="#eee" font-family="Georgia" font-size="12" x="517.1" y="259.9">VP of Engineering</text><path d="m559.8 226.8v9.4" marker-end="url(#f)" stroke="#111" stroke-width="2"/><rect fill="#111" height="28.3" rx="7.1" stroke="#111" width="155.9" x="311.8" y="155.9"/><text fill="#eee" font-family="Georgia" font-size="12" x="329" y="174.9">Staff Software Engineer</text><rect fill="#111" height="28.3" rx="7.1" stroke="#111" width="155.9" x="311.8" y="198.4"/><text fill="#eee" font-family="Georgia" font-size="12" x="342.2" y="217.4">Principal Engineer</text><rect fill="#111" height="28.3" rx="7.1" stroke="#111" width="155.9" x="311.8" y="240.9"/><text fill="#eee" font-family="Georgia" font-size="12" x="329.3" y="259.9">Distinguished Engineer</text><path d="m389.8 141.7v9.5" marker-end="url(#g)" stroke="#111" stroke-width="2"/><path d="m389.8 184.3v9.4" marker-end="url(#h)" stroke="#111" stroke-width="2"/><path d="m389.8 226.8v9.4" marker-end="url(#i)" stroke="#111" stroke-width="2"/></svg>
