<svg viewBox="51.7 -5 265.1 208.4" xmlns="http://www.w3.org/2000/svg" xmlns:xlink="http://www.w3.org/1999/xlink"><marker id="a" markerHeight="5.114774" markerUnits="strokeWidth" markerWidth="6.636236" orient="auto" refX="4.235923" refY="0" viewBox="-.5 -2.6 6.6 5.1"><path d="m5.6 2.1-5.6-2.1 5.6-2.1z" stroke="#111"/></marker><marker id="b" markerHeight="5.114774" markerUnits="strokeWidth" markerWidth="6.636236" orient="auto" refX="-4.235923" refY="0" viewBox="-6.1 -2.6 6.6 5.1"><path d="m-5.6-2.1 5.6 2.1-5.6 2.1z" stroke="#111"/></marker><marker id="c" markerHeight="5.114774" markerUnits="strokeWidth" markerWidth="6.636236" orient="auto" refX="4.235923" refY="0" viewBox="-.5 -2.6 6.6 5.1"><path d="m5.6 2.1-5.6-2.1 5.6-2.1z" stroke="#111"/></marker><marker id="d" markerHeight="5.114774" markerUnits="strokeWidth" markerWidth="6.636236" orient="auto" refX="-4.235923" refY="0" viewBox="-6.1 -2.6 6.6 5.1"><path d="m-5.6-2.1 5.6 2.1-5.6 2.1z" stroke="#111"/></marker><marker id="e" markerHeight="5.114774" markerUnits="strokeWidth" markerWidth="6.636236" orient="auto" refX="4.235923" refY="0" viewBox="-.5 -2.6 6.6 5.1"><path d="m5.6 2.1-5.6-2.1 5.6-2.1z" stroke="#111"/></marker><marker id="f" markerHeight="5.114774" markerUnits="strokeWidth" markerWidth="6.636236" orient="auto" refX="-4.235923" refY="0" viewBox="-6.1 -2.6 6.6 5.1"><path d="m-5.6-2.1 5.6 2.1-5.6 2.1z" stroke="#111"/></marker><marker id="g" markerHeight="5.114774" markerUnits="strokeWidth" markerWidth="6.636236" orient="auto" refX="4.235923" refY="0" viewBox="-.5 -2.6 6.6 5.1"><path d="m5.6 2.1-5.6-2.1 5.6-2.1z" stroke="#111"/></marker><marker id="h" markerHeight="5.114774" markerUnits="strokeWidth" markerWidth="6.636236" orient="auto" refX="-4.235923" refY="0" viewBox="-6.1 -2.6 6.6 5.1"><path d="m-5.6-2.1 5.6 2.1-5.6 2.1z" stroke="#111"/></marker><rect fill="#111" height="28.3" rx="7.1" stroke="#111" width="85" x="141.7"/><text fill="#eee" font-family="Georgia" font-size="12" x="159.4" y="19">Mentor(s)</text><rect fill="#111" height="28.3" rx="7.1" stroke="#111" width="42.5" x="56.7" y="85"/><text fill="#eee" font-family="Georgia" font-size="12" x="68" y="104">Peer</text><rect fill="#111" height="28.3" rx="7.1" stroke="#111" width="42.5" x="269.3" y="85"/><text fill="#eee" font-family="Georgia" font-size="12" x="280.6" y="104">Peer</text><rect fill="#111" height="28.3" rx="7.1" stroke="#111" width="56.7" x="155.9" y="85"/><text fill="#eee" font-family="Georgia" font-size="12" x="175.9" y="104">You</text><rect fill="#111" height="28.3" rx="7.1" stroke="#111" width="85" x="141.7" y="170.1"/><text fill="#eee" font-family="Georgia" font-size="12" x="159.3" y="189">Mentee(s)</text><g stroke="#111" stroke-width="2"><path d="m94.9 85.6 71.6-57.3" stroke-dasharray="4 4"/><path d="m202 28.3 71.6 57.3" stroke-dasharray="4 4"/><path d="m108.7 99.2h37.7" marker-end="url(#b)" marker-start="url(#a)"/><path d="m184.3 37.8v37.8" marker-end="url(#d)" marker-start="url(#c)"/><path d="m222.1 99.2h37.7" marker-end="url(#f)" marker-start="url(#e)"/><path d="m94.9 112.8 71.6 57.3" stroke-dasharray="4 4"/><path d="m184.3 122.9v37.7" marker-end="url(#h)" marker-start="url(#g)"/><path d="m273.6 112.8-71.6 57.3" stroke-dasharray="4 4"/></g></svg>
